<?xml version="1.0" encoding="UTF-8"?>
<!DOCTYPE svg PUBLIC "-//W3C//DTD SVG 1.1//EN" "http://www.w3.org/Graphics/SVG/1.1/DTD/svg11.dtd">
<svg xmlns="http://www.w3.org/2000/svg" version="1.1" width="128px" height="128px" style="shape-rendering:geometricPrecision; text-rendering:geometricPrecision; image-rendering:optimizeQuality; fill-rule:evenodd; clip-rule:evenodd" xmlns:xlink="http://www.w3.org/1999/xlink">
<g><path style="opacity:0.925" fill="#060504" d="M 29.5,-0.5 C 47.8333,-0.5 66.1667,-0.5 84.5,-0.5C 88.4632,3.96447 92.6298,8.2978 97,12.5C 97.5,34.4975 97.6666,56.4975 97.5,78.5C 90.4684,78.1697 83.4684,78.503 76.5,79.5C 86.4186,81.9839 96.4186,84.1506 106.5,86C 112,87.5 115.5,91 117,96.5C 117.5,106.828 117.666,117.161 117.5,127.5C 81.5,127.5 45.5,127.5 9.5,127.5C 9.33351,117.161 9.50017,106.828 10,96.5C 11.5,91 15,87.5 20.5,86C 30.5814,84.1506 40.5814,81.9839 50.5,79.5C 43.5316,78.503 36.5316,78.1697 29.5,78.5C 29.5,52.1667 29.5,25.8333 29.5,-0.5 Z"/></g>
<g><path style="opacity:1" fill="#dee0e4" d="M 79.5,3.5 C 79.5,7.83333 79.5,12.1667 79.5,16.5C 83.8333,16.5 88.1667,16.5 92.5,16.5C 92.5,35.5 92.5,54.5 92.5,73.5C 73.1667,73.5 53.8333,73.5 34.5,73.5C 34.5,50.1667 34.5,26.8333 34.5,3.5C 49.5,3.5 64.5,3.5 79.5,3.5 Z"/></g>
<g><path style="opacity:1" fill="#343435" d="M 75.5,8.5 C 63.5,8.5 51.5,8.5 39.5,8.5C 39.5,20.5 39.5,32.5 39.5,44.5C 38.5048,32.3446 38.1714,20.0113 38.5,7.5C 51.0113,7.17145 63.3446,7.50478 75.5,8.5 Z"/></g>
<g><path style="opacity:1" fill="#050705" d="M 75.5,8.5 C 75.5,20.5 75.5,32.5 75.5,44.5C 63.5,44.5 51.5,44.5 39.5,44.5C 39.5,32.5 39.5,20.5 39.5,8.5C 51.5,8.5 63.5,8.5 75.5,8.5 Z"/></g>
<g><path style="opacity:1" fill="#f77d6a" d="M 84.5,7.5 C 89.1954,10.0251 89.1954,11.3585 84.5,11.5C 84.5,10.1667 84.5,8.83333 84.5,7.5 Z"/></g>
<g><path style="opacity:1" fill="#a29469" d="M 71.5,11.5 C 71.5,11.8333 71.5,12.1667 71.5,12.5C 62.1667,12.5 52.8333,12.5 43.5,12.5C 43.1743,20.6841 43.5076,28.6841 44.5,36.5C 43.9101,37.766 43.4101,39.0993 43,40.5C 42.5002,30.8391 42.3335,21.1724 42.5,11.5C 52.1667,11.5 61.8333,11.5 71.5,11.5 Z"/></g>
<g><path style="opacity:1" fill="#f8e4a2" d="M 71.5,12.5 C 71.8261,21.0168 71.4927,29.3501 70.5,37.5C 68.9059,34.2358 66.5725,31.5691 63.5,29.5C 67.1535,19.9743 63.8201,15.8076 53.5,17C 52.3333,18.1667 51.1667,19.3333 50,20.5C 49.6315,23.877 49.6315,27.2103 50,30.5C 47.4787,31.8807 45.6454,33.8807 44.5,36.5C 43.5076,28.6841 43.1743,20.6841 43.5,12.5C 52.8333,12.5 62.1667,12.5 71.5,12.5 Z"/></g>
<g><path style="opacity:1" fill="#413c2a" d="M 71.5,11.5 C 72.658,20.9911 72.8246,30.6578 72,40.5C 70.9614,39.7562 70.4614,38.7562 70.5,37.5C 71.4927,29.3501 71.8261,21.0168 71.5,12.5C 71.5,12.1667 71.5,11.8333 71.5,11.5 Z"/></g>
<g><path style="opacity:1" fill="#707274" d="M 79.5,3.5 C 80.4834,7.29841 80.8168,11.2984 80.5,15.5C 84.7016,15.1832 88.7016,15.5166 92.5,16.5C 88.1667,16.5 83.8333,16.5 79.5,16.5C 79.5,12.1667 79.5,7.83333 79.5,3.5 Z"/></g>
<g><path style="opacity:1" fill="#e0c2a8" d="M 54.5,20.5 C 61.004,20.1377 62.6707,22.6377 59.5,28C 53.7853,28.401 52.1187,25.901 54.5,20.5 Z"/></g>
<g><path style="opacity:1" fill="#58ceac" d="M 53.5,32.5 C 59.9759,31.7084 64.6426,34.2084 67.5,40C 60.8085,40.8309 54.1418,40.6642 47.5,39.5C 48.8334,36.5067 50.8334,34.1734 53.5,32.5 Z"/></g>
<g><path style="opacity:1" fill="#58595b" d="M 38.5,48.5 C 55.1667,48.5 71.8333,48.5 88.5,48.5C 88.5,50.1667 88.5,51.8333 88.5,53.5C 71.8333,53.5 55.1667,53.5 38.5,53.5C 38.5,51.8333 38.5,50.1667 38.5,48.5 Z"/></g>
<g><path style="opacity:1" fill="#000000" d="M 39.5,49.5 C 55.5,49.5 71.5,49.5 87.5,49.5C 87.5,50.5 87.5,51.5 87.5,52.5C 71.5,52.5 55.5,52.5 39.5,52.5C 39.5,51.5 39.5,50.5 39.5,49.5 Z"/></g>
<g><path style="opacity:1" fill="#050505" d="M 38.5,57.5 C 55.1667,57.5 71.8333,57.5 88.5,57.5C 88.5,58.8333 88.5,60.1667 88.5,61.5C 71.8333,61.5 55.1667,61.5 38.5,61.5C 38.5,60.1667 38.5,58.8333 38.5,57.5 Z"/></g>
<g><path style="opacity:1" fill="#050505" d="M 38.5,65.5 C 55.1667,65.5 71.8333,65.5 88.5,65.5C 88.5,66.8333 88.5,68.1667 88.5,69.5C 71.8333,69.5 55.1667,69.5 38.5,69.5C 38.5,68.1667 38.5,66.8333 38.5,65.5 Z"/></g>
<g><path style="opacity:1" fill="#d4b89f" d="M 55.5,77.5 C 60.8333,77.5 66.1667,77.5 71.5,77.5C 70.9529,82.748 68.2863,86.748 63.5,89.5C 58.7137,86.748 56.0471,82.748 55.5,77.5 Z"/></g>
<g><path style="opacity:1" fill="#d1d4d8" d="M 49.5,84.5 C 53.8614,85.1697 57.1947,87.503 59.5,91.5C 57.3932,93.7267 55.0599,95.7267 52.5,97.5C 51.1169,93.2504 50.1169,88.9171 49.5,84.5 Z"/></g>
<g><path style="opacity:1" fill="#d2d4d8" d="M 73.5,84.5 C 74.8333,84.5 76.1667,84.5 77.5,84.5C 76.8831,88.9171 75.8831,93.2504 74.5,97.5C 71.9401,95.7267 69.6068,93.7267 67.5,91.5C 69.5227,89.1472 71.5227,86.8138 73.5,84.5 Z"/></g>
<g><path style="opacity:1" fill="#c0926d" d="M 39.5,86.5 C 41.8333,86.5 44.1667,86.5 46.5,86.5C 48.2392,98.1978 50.2392,109.865 52.5,121.5C 52.1667,122.167 51.8333,122.833 51.5,123.5C 49.2097,120.506 47.3764,117.173 46,113.5C 45.2563,110.129 45.7563,106.963 47.5,104C 45.9194,103.293 44.4194,102.46 43,101.5C 41.3575,96.5977 40.1909,91.5977 39.5,86.5 Z"/></g>
<g><path style="opacity:1" fill="#be916c" d="M 81.5,85.5 C 83.4352,86.1495 85.4352,86.4828 87.5,86.5C 86.8091,91.5977 85.6425,96.5977 84,101.5C 82.5806,102.46 81.0806,103.293 79.5,104C 81.2437,106.963 81.7437,110.129 81,113.5C 79.6236,117.173 77.7903,120.506 75.5,123.5C 75.1667,122.833 74.8333,122.167 74.5,121.5C 76.5856,109.407 78.9189,97.4067 81.5,85.5 Z"/></g>
<g><path style="opacity:1" fill="#af7744" d="M 26.5,100.5 C 25.5084,107.648 25.175,114.981 25.5,122.5C 21.8333,122.5 18.1667,122.5 14.5,122.5C 14.5,114.5 14.5,106.5 14.5,98.5C 15.5852,94.2462 18.2518,91.4129 22.5,90C 26.77,88.9246 31.1033,88.4246 35.5,88.5C 36.5053,93.522 37.6719,98.522 39,103.5C 40.0736,104.618 41.2402,105.618 42.5,106.5C 41.696,107.941 41.0294,109.441 40.5,111C 42.287,114.745 43.9536,118.578 45.5,122.5C 40.544,123.494 35.544,123.827 30.5,123.5C 30.5,115.833 30.5,108.167 30.5,100.5C 29.1667,100.5 27.8333,100.5 26.5,100.5 Z"/></g>
<g><path style="opacity:1" fill="#af7744" d="M 112.5,98.5 C 112.5,106.5 112.5,114.5 112.5,122.5C 108.833,122.5 105.167,122.5 101.5,122.5C 101.825,114.981 101.492,107.648 100.5,100.5C 99.1667,100.5 97.8333,100.5 96.5,100.5C 96.5,108.167 96.5,115.833 96.5,123.5C 91.456,123.827 86.456,123.494 81.5,122.5C 83.0464,118.578 84.713,114.745 86.5,111C 85.9706,109.441 85.304,107.941 84.5,106.5C 85.7598,105.618 86.9264,104.618 88,103.5C 89.3281,98.522 90.4947,93.522 91.5,88.5C 98.8356,88.0593 105.336,90.0593 111,94.5C 111.791,95.745 112.291,97.0783 112.5,98.5 Z"/></g>
<g><path style="opacity:1" fill="#f17b68" d="M 61.5,95.5 C 66.791,95.4395 68.4576,97.7728 66.5,102.5C 64.5,102.5 62.5,102.5 60.5,102.5C 59.4719,99.7231 59.8053,97.3898 61.5,95.5 Z"/></g>
<g><path style="opacity:1" fill="#865b34" d="M 14.5,98.5 C 14.5,106.5 14.5,114.5 14.5,122.5C 18.1667,122.5 21.8333,122.5 25.5,122.5C 25.175,114.981 25.5084,107.648 26.5,100.5C 26.5,108.167 26.5,115.833 26.5,123.5C 22.1667,123.5 17.8333,123.5 13.5,123.5C 13.1739,114.983 13.5073,106.65 14.5,98.5 Z"/></g>
<g><path style="opacity:1" fill="#865b34" d="M 112.5,98.5 C 113.493,106.65 113.826,114.983 113.5,123.5C 109.167,123.5 104.833,123.5 100.5,123.5C 100.5,115.833 100.5,108.167 100.5,100.5C 101.492,107.648 101.825,114.981 101.5,122.5C 105.167,122.5 108.833,122.5 112.5,122.5C 112.5,114.5 112.5,106.5 112.5,98.5 Z"/></g>
<g><path style="opacity:1" fill="#c6c8cc" d="M 54.5,100.5 C 56.4387,101.014 57.4387,102.347 57.5,104.5C 55.7763,115.877 54.443,116.043 53.5,105C 53.6052,103.408 53.9386,101.908 54.5,100.5 Z"/></g>
<g><path style="opacity:1" fill="#c6c8cc" d="M 70.5,100.5 C 72.9497,100.874 73.9497,102.374 73.5,105C 72.557,116.043 71.2237,115.877 69.5,104.5C 69.8457,103.151 70.179,101.817 70.5,100.5 Z"/></g>
<g><path style="opacity:1" fill="#e97664" d="M 60.5,106.5 C 62.5,106.5 64.5,106.5 66.5,106.5C 67.3715,112.191 68.3715,117.858 69.5,123.5C 65.5,123.5 61.5,123.5 57.5,123.5C 58.6285,117.858 59.6285,112.191 60.5,106.5 Z"/></g>
</svg>
